<svg width="140" height="47" viewBox="0 0 140 47" fill="none" xmlns="http://www.w3.org/2000/svg">
<g filter="url(#filter0_d_139_960)">
<path d="M22.7031 3.34375C22.7031 3.40625 22.5938 3.78125 22.375 4.46875C22.1875 5.125 21.9219 5.98438 21.5781 7.04688C21.2344 8.07812 20.8281 9.25 20.3594 10.5625C19.9219 11.875 19.4531 13.2344 18.9531 14.6406C18.4531 16.0156 17.9375 17.375 17.4062 18.7188C16.9062 20.0625 16.4375 21.2656 16 22.3281C15.9375 24.4844 15.8594 26.5 15.7656 28.375C15.6719 30.25 15.5781 31.8906 15.4844 33.2969C15.3906 34.7031 15.2969 35.8281 15.2031 36.6719C15.1094 37.4844 15.0312 37.9062 14.9688 37.9375C14.8125 38.0625 14.5625 38.0156 14.2188 37.7969C13.875 37.6094 13.5156 37.3438 13.1406 37C12.7969 36.6562 12.4688 36.2812 12.1562 35.875C11.875 35.4688 11.6875 35.125 11.5938 34.8438C11.5625 34.7188 11.5156 34.3281 11.4531 33.6719C11.3906 32.9844 11.3125 32.0781 11.2188 30.9531C11.125 29.7969 11.0156 28.4531 10.8906 26.9219C10.7969 25.3906 10.7031 23.7031 10.6094 21.8594C10.0156 20.5469 9.39062 19 8.73438 17.2188C8.17188 15.6875 7.53125 13.8281 6.8125 11.6406C6.125 9.45312 5.42188 6.9375 4.70312 4.09375C4.70312 3.8125 4.875 3.53125 5.21875 3.25C5.5625 2.9375 5.98438 2.67187 6.48438 2.45312C6.98438 2.23438 7.51562 2.0625 8.07812 1.9375C8.64062 1.8125 9.14062 1.79688 9.57812 1.89062C9.70312 2.07812 9.9375 2.79688 10.2812 4.04688C10.4062 4.57813 10.5625 5.25 10.75 6.0625C10.9688 6.84375 11.2031 7.82812 11.4531 9.01562C11.7031 10.1719 11.9844 11.5312 12.2969 13.0938C12.6406 14.6562 13.0312 16.4688 13.4688 18.5312C13.9375 16.5312 14.3594 14.7656 14.7344 13.2344C15.1094 11.7031 15.4375 10.375 15.7188 9.25C16.0312 8.09375 16.2969 7.125 16.5156 6.34375C16.7656 5.53125 16.9688 4.85938 17.125 4.32812C17.5 3.07813 17.7969 2.34375 18.0156 2.125C18.2344 2 18.5938 1.95313 19.0938 1.98438C19.625 1.98438 20.1406 2.0625 20.6406 2.21875C21.1719 2.34375 21.6406 2.51563 22.0469 2.73438C22.4531 2.92188 22.6719 3.125 22.7031 3.34375ZM36.0156 10.1406C35.8906 10.2969 35.125 10.3125 33.7188 10.1875C32.3125 10.0625 30.0938 9.85938 27.0625 9.57812C27.0625 10.6094 27.0625 11.875 27.0625 13.375C27.0938 14.875 27.0938 16.4844 27.0625 18.2031C29.4062 18.4219 31.2344 18.625 32.5469 18.8125C33.8594 19 34.5469 19.125 34.6094 19.1875C34.7344 19.3125 34.7812 19.5781 34.75 19.9844C34.7188 20.3594 34.6406 20.7812 34.5156 21.25C34.3906 21.7188 34.2344 22.1719 34.0469 22.6094C33.8594 23.0156 33.6719 23.2812 33.4844 23.4062C33.3281 23.4688 32.7031 23.5625 31.6094 23.6875C30.5469 23.7812 29.0312 23.875 27.0625 23.9688C27.0625 25.3125 27.0469 26.6406 27.0156 27.9531C27.0156 29.2656 27 30.4688 26.9688 31.5625C30 31.5938 32.2031 31.6562 33.5781 31.75C34.9844 31.8125 35.75 31.9062 35.875 32.0312C36 32.1875 36 32.4844 35.875 32.9219C35.7812 33.3594 35.6094 33.8281 35.3594 34.3281C35.1406 34.7969 34.8906 35.2656 34.6094 35.7344C34.3594 36.2031 34.1562 36.5312 34 36.7188C33.9375 36.7812 33.5625 36.8125 32.875 36.8125C32.1875 36.7812 31.4219 36.7344 30.5781 36.6719C29.7344 36.6094 28.9219 36.5469 28.1406 36.4844C27.3594 36.3906 26.8438 36.3125 26.5938 36.25C26.125 36.0938 25.625 35.8438 25.0938 35.5C24.5625 35.125 24.1406 34.6562 23.8281 34.0938C23.7656 33.9375 23.6562 33.4219 23.5 32.5469C23.375 31.6406 23.2344 30.5 23.0781 29.125C22.9219 27.75 22.7656 26.2031 22.6094 24.4844C22.4531 22.7656 22.2969 21.0156 22.1406 19.2344C21.9844 17.4531 21.8438 15.7031 21.7188 13.9844C21.5938 12.2656 21.4844 10.7188 21.3906 9.34375C21.3281 7.9375 21.2969 6.78125 21.2969 5.875C21.2969 4.9375 21.3438 4.375 21.4375 4.1875C21.5312 3.9375 21.9688 3.75 22.75 3.625C23.5312 3.5 24.4688 3.42187 25.5625 3.39062C26.6562 3.32812 27.8281 3.3125 29.0781 3.34375C30.3594 3.375 31.5469 3.4375 32.6406 3.53125C33.7344 3.59375 34.6562 3.6875 35.4062 3.8125C36.1562 3.90625 36.5781 4 36.6719 4.09375C36.7969 4.25 36.8594 4.60938 36.8594 5.17188C36.8906 5.73438 36.8594 6.35938 36.7656 7.04688C36.7031 7.70312 36.5938 8.34375 36.4375 8.96875C36.3125 9.5625 36.1719 9.95312 36.0156 10.1406ZM54.5312 8.64062C54.5625 9.10938 54.5 9.8125 54.3438 10.75C54.2188 11.6875 54 12.625 53.6875 13.5625C53.375 14.5 52.9688 15.3281 52.4688 16.0469C52 16.7344 51.4531 17.0781 50.8281 17.0781C50.5156 17.0781 50.25 16.8906 50.0312 16.5156C49.8125 16.1406 49.625 15.6562 49.4688 15.0625C49.3125 14.4688 49.1875 13.8125 49.0938 13.0938C49 12.3438 48.9062 11.625 48.8125 10.9375C48.75 10.25 48.6875 9.625 48.625 9.0625C48.5938 8.46875 48.5625 8.03125 48.5312 7.75C48.4062 7.5625 48.1719 7.375 47.8281 7.1875C47.5156 6.96875 47.2344 6.85938 46.9844 6.85938C46.7031 6.85938 46.3594 7.125 45.9531 7.65625C45.5781 8.1875 45.2188 8.8125 44.875 9.53125C44.5312 10.25 44.25 10.9688 44.0312 11.6875C43.8125 12.375 43.7188 12.9062 43.75 13.2812C43.75 13.5312 43.9844 13.9688 44.4531 14.5938C44.9531 15.2188 45.5625 15.9531 46.2812 16.7969C47 17.6406 47.7812 18.5625 48.625 19.5625C49.4688 20.5312 50.25 21.5 50.9688 22.4688C51.6875 23.4375 52.2969 24.3594 52.7969 25.2344C53.2969 26.1094 53.5625 26.8594 53.5938 27.4844C53.6562 28.2344 53.4844 29.2031 53.0781 30.3906C52.7031 31.5469 52.2188 32.6719 51.625 33.7656C51.0312 34.8594 50.3906 35.8125 49.7031 36.625C49.0469 37.4062 48.4531 37.8125 47.9219 37.8438C47.5781 37.875 47.125 37.7188 46.5625 37.375C46 37.0625 45.3906 36.6406 44.7344 36.1094C44.0781 35.5781 43.4062 35 42.7188 34.375C42.0625 33.7188 41.4375 33.0781 40.8438 32.4531C40.2812 31.8281 39.7969 31.2656 39.3906 30.7656C39.0156 30.2344 38.7969 29.8438 38.7344 29.5938C38.6094 29.2188 38.5312 28.7188 38.5 28.0938C38.5 27.4375 38.5312 26.8125 38.5938 26.2188C38.6875 25.5938 38.7969 25.0625 38.9219 24.625C39.0781 24.1562 39.2656 23.9219 39.4844 23.9219C39.6406 23.9219 39.8906 24.125 40.2344 24.5312C40.6094 24.9375 41.0312 25.4531 41.5 26.0781C41.9688 26.7031 42.4688 27.3906 43 28.1406C43.5625 28.8594 44.0938 29.5312 44.5938 30.1562C45.0938 30.7812 45.5469 31.3125 45.9531 31.75C46.3594 32.1562 46.6875 32.3438 46.9375 32.3125C47.125 32.3125 47.3281 32.1719 47.5469 31.8906C47.7656 31.5781 47.9688 31.2188 48.1562 30.8125C48.3438 30.375 48.5 29.9375 48.625 29.5C48.75 29.0625 48.8125 28.7188 48.8125 28.4688C48.7812 28.0938 48.4688 27.5625 47.875 26.875C47.3125 26.1562 46.5938 25.3594 45.7188 24.4844C44.875 23.5781 43.9531 22.6406 42.9531 21.6719C41.9844 20.7031 41.0625 19.7812 40.1875 18.9062C39.3438 18 38.625 17.1875 38.0312 16.4688C37.4688 15.75 37.1719 15.2031 37.1406 14.8281C37.1094 14.4531 37.2188 13.875 37.4688 13.0938C37.7188 12.2812 38.0469 11.375 38.4531 10.375C38.8906 9.375 39.375 8.35938 39.9062 7.32812C40.4375 6.29688 40.9844 5.34375 41.5469 4.46875C42.1094 3.59375 42.6562 2.89063 43.1875 2.35938C43.7188 1.79688 44.1875 1.51562 44.5938 1.51562C45.125 1.51562 45.7344 1.64062 46.4219 1.89062C47.1094 2.10937 47.8125 2.42188 48.5312 2.82812C49.2812 3.20312 50 3.64063 50.6875 4.14062C51.4062 4.64062 52.0469 5.15625 52.6094 5.6875C53.1719 6.1875 53.625 6.70312 53.9688 7.23438C54.3125 7.73438 54.5 8.20312 54.5312 8.64062ZM62.4062 2.59375C62.4688 2.78125 62.4844 3.51562 62.4531 4.79688C62.4531 6.04687 62.4062 7.59375 62.3125 9.4375C62.25 11.25 62.1562 13.2031 62.0312 15.2969C61.9062 17.3594 61.7656 19.3125 61.6094 21.1562C61.4844 22.9688 61.3438 24.5156 61.1875 25.7969C61.0625 27.0469 60.9375 27.7656 60.8125 27.9531C60.5 28.4531 60.0312 28.75 59.4062 28.8438C58.7812 28.9062 58.3125 28.9062 58 28.8438C57.9062 28.8125 57.8125 28.4688 57.7188 27.8125C57.625 27.1562 57.5312 26.2812 57.4375 25.1875C57.375 24.0938 57.3125 22.8438 57.25 21.4375C57.1875 20.0312 57.1406 18.5938 57.1094 17.125C57.0781 15.625 57.0469 14.1562 57.0156 12.7188C56.9844 11.25 56.9688 9.92188 56.9688 8.73438C56.9688 7.54688 56.9844 6.54688 57.0156 5.73438C57.0469 4.92187 57.0938 4.40625 57.1562 4.1875C57.2812 3.75 57.5938 3.35938 58.0938 3.01562C58.5938 2.67187 59.1406 2.42188 59.7344 2.26562C60.3281 2.07812 60.875 2.01562 61.375 2.07812C61.9062 2.10937 62.25 2.28125 62.4062 2.59375ZM61.6094 32.125C61.7344 32.3438 61.7812 32.6562 61.75 33.0625C61.75 33.4375 61.7031 33.8438 61.6094 34.2812C61.5469 34.6875 61.4375 35.0938 61.2812 35.5C61.1562 35.875 61.0156 36.1875 60.8594 36.4375C60.7344 36.625 60.5625 36.7812 60.3438 36.9062C60.125 37.0312 59.8906 37.1094 59.6406 37.1406C59.3906 37.2031 59.1562 37.2344 58.9375 37.2344C58.7188 37.2344 58.5469 37.2344 58.4219 37.2344C58.2344 37.2031 58.0312 37.0625 57.8125 36.8125C57.625 36.5625 57.4531 36.2656 57.2969 35.9219C57.1719 35.5469 57.0781 35.1562 57.0156 34.75C56.9531 34.3125 56.9688 33.9062 57.0625 33.5312C57.1562 33.1875 57.4219 32.875 57.8594 32.5938C58.2969 32.2812 58.7656 32.0469 59.2656 31.8906C59.7969 31.7344 60.2812 31.6719 60.7188 31.7031C61.1875 31.7031 61.4844 31.8438 61.6094 32.125ZM74.8281 6.20312C74.7656 6.10938 74.6562 6.01562 74.5 5.92188C74.375 5.82812 74.2188 5.75 74.0312 5.6875C73.8438 5.625 73.6562 5.60938 73.4688 5.64062C73.3125 5.64062 73.1875 5.70313 73.0938 5.82812C73 5.98438 72.8281 6.57812 72.5781 7.60938C72.3594 8.60938 72.125 9.85938 71.875 11.3594C71.625 12.8594 71.4062 14.5312 71.2188 16.375C71.0312 18.2188 70.9375 20.0469 70.9375 21.8594C70.9375 23.1719 70.9844 24.5469 71.0781 25.9844C71.1719 27.3906 71.2812 28.6875 71.4062 29.875C71.5625 31.0625 71.7344 32.0469 71.9219 32.8281C72.1406 33.5781 72.3594 33.9531 72.5781 33.9531C72.7969 33.9844 73.0938 33.75 73.4688 33.25C73.8438 32.75 74.2031 32.1875 74.5469 31.5625C74.8906 30.9062 75.2031 30.2812 75.4844 29.6875C75.7969 29.0625 76 28.6406 76.0938 28.4219C76.2188 28.0781 76.3906 27.7031 76.6094 27.2969C76.8281 26.8594 77.0469 26.4688 77.2656 26.125C77.4844 25.75 77.7031 25.4531 77.9219 25.2344C78.1406 24.9844 78.3281 24.8594 78.4844 24.8594C78.6719 24.8594 78.8281 25.0469 78.9531 25.4219C79.1094 25.7969 79.2188 26.25 79.2812 26.7812C79.375 27.2812 79.4375 27.8125 79.4688 28.375C79.5 28.9062 79.5156 29.3438 79.5156 29.6875C79.5156 30.3125 79.3906 31.0938 79.1406 32.0312C78.9219 32.9688 78.625 33.875 78.25 34.75C77.9062 35.625 77.5156 36.375 77.0781 37C76.6719 37.625 76.2812 37.9219 75.9062 37.8906C75.5312 37.8594 74.9219 37.6406 74.0781 37.2344C73.2656 36.8281 72.4219 36.3594 71.5469 35.8281C70.6719 35.2969 69.875 34.7656 69.1562 34.2344C68.4375 33.7031 68.0156 33.2812 67.8906 32.9688C67.7344 32.6875 67.5 32.0156 67.1875 30.9531C66.9062 29.8594 66.6094 28.5469 66.2969 27.0156C65.9844 25.4844 65.7031 23.7969 65.4531 21.9531C65.2344 20.1094 65.125 18.25 65.125 16.375C65.125 14.5 65.1406 12.6562 65.1719 10.8438C65.2031 9 65.2656 7.35938 65.3594 5.92188C65.4844 4.48438 65.6719 3.32812 65.9219 2.45312C66.1719 1.54687 66.5156 1.0625 66.9531 1C67.8281 0.90625 68.7812 0.96875 69.8125 1.1875C70.8438 1.375 71.875 1.67188 72.9062 2.07812C73.9375 2.48437 74.9219 2.95312 75.8594 3.48438C76.8281 3.98437 77.6875 4.51562 78.4375 5.07812C79.1875 5.60938 79.7812 6.125 80.2188 6.625C80.6875 7.125 80.9375 7.54688 80.9688 7.89062C81 8.42188 80.9375 9.01562 80.7812 9.67188C80.625 10.3281 80.4375 10.9688 80.2188 11.5938C80 12.1875 79.7656 12.7344 79.5156 13.2344C79.2969 13.7031 79.125 14.0312 79 14.2188C78.8438 14.4375 78.6562 14.6719 78.4375 14.9219C78.2188 15.1719 77.9844 15.3906 77.7344 15.5781C77.5156 15.7656 77.2812 15.9062 77.0312 16C76.8125 16.0625 76.6094 16.0156 76.4219 15.8594C76.2969 15.7656 76.1719 15.4688 76.0469 14.9688C75.9531 14.4688 75.8438 13.875 75.7188 13.1875C75.625 12.5 75.5312 11.7656 75.4375 10.9844C75.3438 10.1719 75.25 9.42188 75.1562 8.73438C75.0938 8.04688 75.0312 7.46875 74.9688 7C74.9062 6.53125 74.8594 6.26563 74.8281 6.20312ZM101.172 23.9219C101.234 24.0469 101.234 24.3906 101.172 24.9531C101.109 25.4844 101 26.0625 100.844 26.6875C100.719 27.3125 100.578 27.9062 100.422 28.4688C100.297 29 100.203 29.3125 100.141 29.4062C99.9844 29.4062 99.8125 29.4062 99.625 29.4062C99.4688 29.375 99.3125 29.3594 99.1562 29.3594C99 29.3594 98.8281 29.3438 98.6406 29.3125C98.5469 30.625 98.4375 31.8594 98.3125 33.0156C98.1875 34.1406 98.0625 35.1094 97.9375 35.9219C97.8125 36.7344 97.7031 37.375 97.6094 37.8438C97.5156 38.3438 97.4219 38.5938 97.3281 38.5938C97.0781 38.6562 96.7969 38.5469 96.4844 38.2656C96.2031 38.0156 95.9219 37.7031 95.6406 37.3281C95.3594 36.9531 95.1094 36.5625 94.8906 36.1562C94.6719 35.7188 94.5469 35.3438 94.5156 35.0312C94.4844 34.4062 94.4531 33.75 94.4219 33.0625C94.4219 32.3438 94.4062 31.6875 94.375 31.0938C94.3438 30.4062 94.3281 29.7188 94.3281 29.0312C93.7344 28.9688 93.1562 28.9219 92.5938 28.8906C92.0312 28.8281 91.4688 28.7656 90.9062 28.7031C90.625 28.6406 90.3438 28.6094 90.0625 28.6094C89.7812 28.5781 89.5156 28.5312 89.2656 28.4688C89.2031 29.9062 89.1406 31.2344 89.0781 32.4531C89.0156 33.6719 88.9375 34.7344 88.8438 35.6406C88.7812 36.5469 88.7031 37.25 88.6094 37.75C88.5469 38.2812 88.4688 38.5625 88.375 38.5938C88.125 38.625 87.8281 38.5156 87.4844 38.2656C87.1406 38.0156 86.8125 37.7031 86.5 37.3281C86.2188 36.9531 85.9531 36.5625 85.7031 36.1562C85.4844 35.75 85.3594 35.3906 85.3281 35.0781C85.2656 34.2656 85.2031 33.4375 85.1406 32.5938C85.0781 31.7188 85.0156 30.9219 84.9531 30.2031C84.8906 29.3594 84.8281 28.5312 84.7656 27.7188C84.5156 27.6875 84.2656 27.6406 84.0156 27.5781C83.7969 27.5156 83.5625 27.4688 83.3125 27.4375C83.0938 27.4062 82.8906 27.3594 82.7031 27.2969C82.5781 27.2344 82.4062 27.1094 82.1875 26.9219C81.9688 26.7031 81.75 26.4688 81.5312 26.2188C81.3125 25.9688 81.125 25.7344 80.9688 25.5156C80.8125 25.2656 80.7344 25.0781 80.7344 24.9531C80.7344 24.8906 81.0781 24.8125 81.7656 24.7188C82.4844 24.625 83.4219 24.5469 84.5781 24.4844C84.4531 22.6719 84.3281 20.8281 84.2031 18.9531C84.1094 17.0469 84.0312 15.2812 83.9688 13.6562C83.9062 12 83.875 10.5625 83.875 9.34375C83.875 8.09375 83.9219 7.23438 84.0156 6.76562C84.1406 6.10938 84.4375 5.48437 84.9062 4.89062C85.4062 4.26562 85.9375 3.71875 86.5 3.25C87.0625 2.78125 87.5938 2.42188 88.0938 2.17188C88.5938 1.92187 88.9219 1.84375 89.0781 1.9375C89.1719 2.03125 89.25 2.40625 89.3125 3.0625C89.4062 3.71875 89.4688 4.59375 89.5 5.6875C89.5625 6.78125 89.5938 8.04688 89.5938 9.48438C89.5938 10.9219 89.5938 12.4531 89.5938 14.0781C89.5938 15.6719 89.5625 17.3438 89.5 19.0938C89.4688 20.8125 89.4375 22.5156 89.4062 24.2031C90.2188 24.1406 91.0156 24.0938 91.7969 24.0625C92.6094 24.0312 93.4062 23.9844 94.1875 23.9219C94.1562 22.1406 94.125 20.3281 94.0938 18.4844C94.0938 16.6406 94.0938 14.9219 94.0938 13.3281C94.0938 11.7344 94.125 10.3438 94.1875 9.15625C94.25 7.96875 94.3281 7.14062 94.4219 6.67188C94.5781 6.01562 94.9062 5.39062 95.4062 4.79688C95.9375 4.20313 96.4844 3.6875 97.0469 3.25C97.6406 2.78125 98.1875 2.4375 98.6875 2.21875C99.2188 2 99.5625 1.95313 99.7188 2.07812C99.875 2.17188 99.9688 2.90625 100 4.28125C100.031 5.625 100 7.32812 99.9062 9.39062C99.8438 11.4531 99.7344 13.7656 99.5781 16.3281C99.4531 18.8594 99.2969 21.3594 99.1094 23.8281C100.359 23.8281 101.047 23.8594 101.172 23.9219ZM118.141 10.1406C118.016 10.2969 117.25 10.3125 115.844 10.1875C114.438 10.0625 112.219 9.85938 109.188 9.57812C109.188 10.6094 109.188 11.875 109.188 13.375C109.219 14.875 109.219 16.4844 109.188 18.2031C111.531 18.4219 113.359 18.625 114.672 18.8125C115.984 19 116.672 19.125 116.734 19.1875C116.859 19.3125 116.906 19.5781 116.875 19.9844C116.844 20.3594 116.766 20.7812 116.641 21.25C116.516 21.7188 116.359 22.1719 116.172 22.6094C115.984 23.0156 115.797 23.2812 115.609 23.4062C115.453 23.4688 114.828 23.5625 113.734 23.6875C112.672 23.7812 111.156 23.875 109.188 23.9688C109.188 25.3125 109.172 26.6406 109.141 27.9531C109.141 29.2656 109.125 30.4688 109.094 31.5625C112.125 31.5938 114.328 31.6562 115.703 31.75C117.109 31.8125 117.875 31.9062 118 32.0312C118.125 32.1875 118.125 32.4844 118 32.9219C117.906 33.3594 117.734 33.8281 117.484 34.3281C117.266 34.7969 117.016 35.2656 116.734 35.7344C116.484 36.2031 116.281 36.5312 116.125 36.7188C116.062 36.7812 115.688 36.8125 115 36.8125C114.312 36.7812 113.547 36.7344 112.703 36.6719C111.859 36.6094 111.047 36.5469 110.266 36.4844C109.484 36.3906 108.969 36.3125 108.719 36.25C108.25 36.0938 107.75 35.8438 107.219 35.5C106.688 35.125 106.266 34.6562 105.953 34.0938C105.891 33.9375 105.781 33.4219 105.625 32.5469C105.5 31.6406 105.359 30.5 105.203 29.125C105.047 27.75 104.891 26.2031 104.734 24.4844C104.578 22.7656 104.422 21.0156 104.266 19.2344C104.109 17.4531 103.969 15.7031 103.844 13.9844C103.719 12.2656 103.609 10.7188 103.516 9.34375C103.453 7.9375 103.422 6.78125 103.422 5.875C103.422 4.9375 103.469 4.375 103.562 4.1875C103.656 3.9375 104.094 3.75 104.875 3.625C105.656 3.5 106.594 3.42187 107.688 3.39062C108.781 3.32812 109.953 3.3125 111.203 3.34375C112.484 3.375 113.672 3.4375 114.766 3.53125C115.859 3.59375 116.781 3.6875 117.531 3.8125C118.281 3.90625 118.703 4 118.797 4.09375C118.922 4.25 118.984 4.60938 118.984 5.17188C119.016 5.73438 118.984 6.35938 118.891 7.04688C118.828 7.70312 118.719 8.34375 118.562 8.96875C118.438 9.5625 118.297 9.95312 118.141 10.1406ZM125.312 22.375C125.312 22.7812 125.297 23.4219 125.266 24.2969C125.266 25.1719 125.25 26.1562 125.219 27.25C125.188 28.3438 125.141 29.4844 125.078 30.6719C125.047 31.8281 124.984 32.8906 124.891 33.8594C124.797 34.7969 124.688 35.5781 124.562 36.2031C124.469 36.8281 124.344 37.1406 124.188 37.1406C123.719 37.1406 123.266 36.8125 122.828 36.1562C122.422 35.4688 122 34.7344 121.562 33.9531C121.469 33.7656 121.359 33.2188 121.234 32.3125C121.141 31.375 121.031 30.2031 120.906 28.7969C120.812 27.3906 120.719 25.8281 120.625 24.1094C120.531 22.3906 120.438 20.6406 120.344 18.8594C120.25 17.0781 120.172 15.3281 120.109 13.6094C120.078 11.8906 120.047 10.3438 120.016 8.96875C119.984 7.59375 119.984 6.45313 120.016 5.54688C120.047 4.60938 120.109 4.0625 120.203 3.90625C120.328 3.6875 120.766 3.53125 121.516 3.4375C122.266 3.3125 123.172 3.25 124.234 3.25C125.328 3.25 126.5 3.28125 127.75 3.34375C129 3.40625 130.156 3.5 131.219 3.625C132.312 3.71875 133.219 3.82813 133.938 3.95312C134.688 4.07812 135.109 4.1875 135.203 4.28125C135.328 4.40625 135.344 4.75 135.25 5.3125C135.188 5.84375 135.062 6.4375 134.875 7.09375C134.719 7.71875 134.516 8.3125 134.266 8.875C134.047 9.4375 133.859 9.79688 133.703 9.95312C133.547 10.1094 132.812 10.0938 131.5 9.90625C130.219 9.71875 128.156 9.5 125.312 9.25V17.0781C127.5 17.2656 129.203 17.4375 130.422 17.5938C131.672 17.75 132.328 17.8594 132.391 17.9219C132.516 18.0469 132.562 18.2969 132.531 18.6719C132.5 19.0469 132.422 19.4531 132.297 19.8906C132.172 20.2969 132.016 20.6875 131.828 21.0625C131.641 21.4062 131.453 21.6406 131.266 21.7656C131.172 21.8281 130.609 21.9219 129.578 22.0469C128.578 22.1719 127.156 22.2812 125.312 22.375Z" fill="#38BDF8"/>
</g>
<defs>
<filter id="filter0_d_139_960" x="0.703125" y="0.859375" width="138.688" height="45.8281" filterUnits="userSpaceOnUse" color-interpolation-filters="sRGB">
<feFlood flood-opacity="0" result="BackgroundImageFix"/>
<feColorMatrix in="SourceAlpha" type="matrix" values="0 0 0 0 0 0 0 0 0 0 0 0 0 0 0 0 0 0 127 0" result="hardAlpha"/>
<feOffset dy="4"/>
<feGaussianBlur stdDeviation="2"/>
<feComposite in2="hardAlpha" operator="out"/>
<feColorMatrix type="matrix" values="0 0 0 0 0 0 0 0 0 0 0 0 0 0 0 0 0 0 0.25 0"/>
<feBlend mode="normal" in2="BackgroundImageFix" result="effect1_dropShadow_139_960"/>
<feBlend mode="normal" in="SourceGraphic" in2="effect1_dropShadow_139_960" result="shape"/>
</filter>
</defs>
</svg>
